<svg role="img" viewBox="0 0 24 24" xmlns="http://www.w3.org/2000/svg"><title>Slack</title><path fill="#fff" d="M5.042 15.674a2.522 2.522 0 1 1-2.522-2.522h2.522zm1.26 0a2.522 2.522 0 0 1 5.043 0v6.303a2.522 2.522 0 1 1-5.043 0zm2.522-10.043a2.522 2.522 0 1 1 2.522 2.522V5.13zm0-1.26a2.522 2.522 0 0 1 0-5.043h6.303a2.522 2.522 0 1 1 0 5.043zm10.043 2.522a2.522 2.522 0 1 1-2.522 2.522h2.522zm1.26 0a2.522 2.522 0 0 1 0 5.043h-6.303a2.522 2.522 0 1 1 0-5.043zm-2.522 10.043a2.522 2.522 0 1 1-2.522-2.522v2.522zm0 1.26a2.522 2.522 0 0 1 0 5.043h-6.303a2.522 2.522 0 1 1 0-5.043z"/></svg>